<svg width="303.6749755859375px" height="112.39999999999999px" xmlns="http://www.w3.org/2000/svg" viewBox="98.16251220703126 18.800000000000004 303.6749755859375 112.39999999999999" style="background:#f2eddb" preserveAspectRatio="xMidYMid"><defs><filter id="editing-vintage" x="-100%" y="-100%" width="300%" height="300%"><feConvolveMatrix in="SourceGraphic" result="extrude" order="9,9" divisor="1" kernelMatrix="1 0 0 0 0 0 0 0 0 0 1 0 0 0 0 0 0 0 0 0 1 0 0 0 0 0 0 0 0 0 1 0 0 0 0 0 0 0 0 0 1 0 0 0 0 0 0 0 0 0 1 0 0 0 0 0 0 0 0 0 1 0 0 0 0 0 0 0 0 0 1 0 0 0 0 0 0 0 0 0 1 "> </feConvolveMatrix><feFlood flood-color="#ebbb9b" result="flood-extrude"></feFlood><feComposite operator="in" in="flood-extrude" in2="extrude" result="extrude-color"></feComposite><feOffset dx="6" dy="6" in="extrude-color" result="extrude-offset"></feOffset><feColorMatrix in="SourceGraphic" result="stroke" type="matrix" values="0 0 0 0 0 0 0 0 0 0 0 0 0 0 0 0 1 0 0 0 "></feColorMatrix><feColorMatrix in="SourceGraphic" result="fill" type="matrix" values="0 0 0 0 0 0 0 0 0 0 0 0 0 0 0 1 0 0 1 0 "></feColorMatrix><feConvolveMatrix in="stroke" result="inner-shadow" order="5,5" divisor="1" kernelMatrix="1 0 0 0 0 0 1 0 0 0 0 0 1 0 0 0 0 0 1 0 0 0 0 0 1 "></feConvolveMatrix><feOffset dx="1" dy="1" in="inner-shadow" result="offset"></feOffset><feComposite operator="in" in="offset" in2="SourceAlpha" result="comp"></feComposite><feFlood flood-color="#ebbb9b" result="flood3"></feFlood><feComposite operator="in" in="flood3" in2="comp" result="comp2"></feComposite><feColorMatrix in="comp2" result="comp3" type="matrix" values="1 0 0 0 0 0 1 0 0 0 0 0 1 0 0 0 0 0 0.5 0 "></feColorMatrix><feFlood flood-color="#efbc9b" result="flood1"></feFlood><feComposite operator="in" in="flood1" in2="fill" result="fill2"></feComposite><feFlood flood-color="#fff" result="flood2"></feFlood><feComposite operator="in" in="flood2" in2="stroke" result="stroke2"></feComposite><feMerge result="obj"><feMergeNode in="extrude-offset"></feMergeNode><feMergeNode in="fill2"></feMergeNode><feMergeNode in="comp3"></feMergeNode></feMerge><feConvolveMatrix in="SourceAlpha" result="shadow" order="9,9" divisor="1" kernelMatrix="1 0 0 0 0 0 0 0 0 0 1 0 0 0 0 0 0 0 0 0 1 0 0 0 0 0 0 0 0 0 1 0 0 0 0 0 0 0 0 0 1 0 0 0 0 0 0 0 0 0 1 0 0 0 0 0 0 0 0 0 1 0 0 0 0 0 0 0 0 0 1 0 0 0 0 0 0 0 0 0 1 "></feConvolveMatrix><feOffset dx="12" dy="12" in="shadow" result="shadow-offset"></feOffset><feFlood flood-color="#a8b4a5" result="flood-shadow"></feFlood><feComposite operator="in" in="flood-shadow" in2="shadow-offset" result="shadow-color"></feComposite><feMerge><feMergeNode in="shadow-color"></feMergeNode><feMergeNode in="obj"></feMergeNode></feMerge></filter></defs><g transform="translate(-9,-9)"><g filter="url(#editing-vintage)"><g transform="translate(150.17393684387207, 99.73500061035156)"><path d="M8.64-1.09L-1.92-0.38L-1.92-0.38Q0.90-8.90 3.46-17.09L3.46-17.09L3.46-17.09Q4.54-20.54 5.70-24.32L5.70-24.32L5.70-24.32Q6.85-28.10 8-31.81L8-31.81L8-31.81Q9.15-35.52 10.14-38.98L10.14-38.98L10.14-38.98Q11.14-42.43 11.90-45.38L11.90-45.38L11.90-45.38Q15.42-45.38 18.56-45.76L18.56-45.76L18.56-45.76Q21.70-46.14 25.34-46.46L25.34-46.46L25.34-46.46Q25.15-45.06 24.93-43.30L24.93-43.30L24.93-43.30Q24.70-41.54 24.42-39.62L24.42-39.62L24.42-39.62Q24.13-37.70 23.81-35.65L23.81-35.65L23.81-35.65Q23.49-33.60 23.04-30.40L23.04-30.40L23.04-30.40Q22.59-27.20 21.82-22.40L21.82-22.40L22.66-22.40L22.66-22.40Q24.51-27.26 25.73-30.50L25.73-30.50L25.73-30.50Q26.94-33.73 27.71-35.78L27.71-35.78L27.71-35.78Q28.48-37.82 29.28-39.78L29.28-39.78L29.28-39.78Q30.08-41.73 30.82-43.49L30.82-43.49L30.82-43.49Q31.55-45.25 32.19-46.59L32.19-46.59L32.19-46.59Q33.79-46.72 35.20-46.91L35.20-46.91L35.20-46.91Q36.61-47.10 38.02-47.33L38.02-47.33L38.02-47.33Q39.42-47.55 40.86-47.78L40.86-47.78L40.86-47.78Q42.30-48 44.03-48.32L44.03-48.32L44.03-48.32Q43.39-44.61 42.82-40.70L42.82-40.70L42.82-40.70Q42.24-36.80 41.79-32.93L41.79-32.93L41.79-32.93Q41.34-29.06 40.93-25.28L40.93-25.28L40.93-25.28Q40.51-21.50 40.19-18.11L40.19-18.11L40.19-18.11Q39.42-10.18 38.85-2.62L38.85-2.62L27.71-0.64L27.71-0.64Q27.71-0.96 27.81-2.37L27.81-2.37L27.81-2.37Q27.90-3.78 28.06-5.82L28.06-5.82L28.06-5.82Q28.22-7.87 28.51-10.37L28.51-10.37L28.51-10.37Q28.80-12.86 29.09-15.36L29.09-15.36L29.09-15.36Q29.38-17.86 29.70-20.19L29.70-20.19L29.70-20.19Q30.02-22.53 30.34-24.19L30.34-24.19L29.76-24.19L29.76-24.19Q28.86-21.50 27.78-18.53L27.78-18.53L27.78-18.53Q26.69-15.55 25.57-12.48L25.57-12.48L25.57-12.48Q24.45-9.41 23.36-6.46L23.36-6.46L23.36-6.46Q22.27-3.52 21.44-0.83L21.44-0.83L21.44-0.83Q19.20-0.77 17.60-0.67L17.60-0.67L17.60-0.67Q16-0.58 13.89-0.45L13.89-0.45L15.94-24.19L14.98-24.19L14.98-24.19Q14.85-23.36 14.34-21.41L14.34-21.41L14.34-21.41Q13.82-19.46 13.15-16.93L13.15-16.93L13.15-16.93Q12.48-14.40 11.71-11.68L11.71-11.68L11.71-11.68Q10.94-8.96 10.27-6.62L10.27-6.62L10.27-6.62Q9.60-4.29 9.15-2.78L9.15-2.78L9.15-2.78Q8.70-1.28 8.64-1.09L8.64-1.09ZM60.80-3.14L40.13 0.06L48.51-45.44L68.74-47.17L68.74-47.17Q68.29-45.76 67.97-44.29L67.97-44.29L67.97-44.29Q67.65-43.07 67.36-41.76L67.36-41.76L67.36-41.76Q67.07-40.45 66.88-39.42L66.88-39.42L66.88-39.42Q66.24-39.36 65.06-39.33L65.06-39.33L65.06-39.33Q63.87-39.30 62.53-39.26L62.53-39.26L62.53-39.26Q61.18-39.23 59.81-39.23L59.81-39.23L59.81-39.23Q58.43-39.23 57.41-39.23L57.41-39.23L55.17-27.78L55.17-27.78Q57.15-27.90 58.88-27.97L58.88-27.97L58.88-27.97Q60.29-28.03 61.76-28.03L61.76-28.03L61.76-28.03Q63.23-28.03 63.94-28.10L63.94-28.10L63.94-28.10Q63.68-26.30 63.46-24.58L63.46-24.58L63.46-24.58Q63.23-22.85 62.91-21.06L62.91-21.06L62.91-21.06Q62.27-20.99 60.83-20.96L60.83-20.96L60.83-20.96Q59.39-20.93 57.92-20.86L57.92-20.86L57.92-20.86Q56.26-20.80 54.27-20.74L54.27-20.74L52.10-8.96L61.44-10.43L60.80-3.14ZM84.80-1.34L84.80-1.34Q79.62-0.96 73.98-0.58L73.98-0.58L75.07-8.64L75.07-8.64Q75.26-10.62 77.02-12.77L77.02-12.77L77.02-12.77Q78.78-14.91 81.22-17.12L81.22-17.12L81.22-17.12Q83.65-19.33 86.43-21.41L86.43-21.41L86.43-21.41Q89.22-23.49 91.58-25.41L91.58-25.41L91.58-25.41Q93.95-27.33 95.52-28.96L95.52-28.96L95.52-28.96Q97.09-30.59 97.09-31.81L97.09-31.81L97.09-31.81Q97.09-33.73 96.35-34.78L96.35-34.78L96.35-34.78Q95.62-35.84 94.53-35.84L94.53-35.84L94.53-35.84Q93.44-35.84 92.64-35.36L92.64-35.36L92.64-35.36Q91.84-34.88 91.42-34.11L91.42-34.11L91.42-34.11Q91.01-33.34 90.82-32.45L90.82-32.45L90.82-32.45Q90.62-31.55 90.62-30.66L90.62-30.66L90.62-30.02L90.62-30.02Q90.62-29.82 90.69-29.76L90.69-29.76L90.69-29.76Q88.96-29.63 87.10-29.44L87.10-29.44L87.10-29.44Q85.50-29.31 83.55-29.09L83.55-29.09L83.55-29.09Q81.60-28.86 79.68-28.67L79.68-28.67L79.68-28.67Q79.62-29.18 79.58-29.73L79.58-29.73L79.58-29.73Q79.55-30.27 79.55-30.72L79.55-30.72L79.55-30.72Q79.55-34.50 81.02-37.47L81.02-37.47L81.02-37.47Q82.50-40.45 84.83-42.46L84.83-42.46L84.83-42.46Q87.17-44.48 90.14-45.57L90.14-45.57L90.14-45.57Q93.12-46.66 96.06-46.66L96.06-46.66L96.06-46.66Q98.50-46.66 100.70-45.89L100.70-45.89L100.70-45.89Q102.91-45.12 104.61-43.55L104.61-43.55L104.61-43.55Q106.30-41.98 107.33-39.58L107.33-39.58L107.33-39.58Q108.35-37.18 108.35-33.86L108.35-33.86L108.35-33.86Q108.35-30.66 106.69-27.62L106.69-27.62L106.69-27.62Q105.02-24.58 102.08-21.66L102.08-21.66L102.08-21.66Q99.14-18.75 95.10-16L95.10-16L95.10-16Q91.07-13.25 86.34-10.75L86.34-10.75L86.34-10.75Q88.06-10.75 90.78-10.88L90.78-10.88L90.78-10.88Q93.50-11.01 96.35-11.23L96.35-11.23L96.35-11.23Q99.20-11.46 102.53-11.71L102.53-11.71L101.50-2.43L101.50-2.43Q99.97-2.30 98.02-2.18L98.02-2.18L98.02-2.18Q96.06-2.05 93.86-1.92L93.86-1.92L93.86-1.92Q91.65-1.79 89.31-1.63L89.31-1.63L89.31-1.63Q86.98-1.47 84.80-1.34L84.80-1.34ZM132.16-2.30L121.22-0.96L124.16-13.82L124.16-13.82Q124.16-16.58 124.06-19.81L124.06-19.81L124.06-19.81Q123.97-23.04 123.78-26.30L123.78-26.30L123.78-26.30Q123.58-29.57 123.39-32.61L123.39-32.61L123.39-32.61Q123.20-35.65 123.07-37.98L123.07-37.98L123.07-37.98Q122.94-40.32 122.82-41.73L122.82-41.73L122.82-41.73Q122.69-43.14 122.69-43.14L122.69-43.14L133.12-47.10L133.12-39.30L133.12-39.30Q133.12-37.70 133.12-36.03L133.12-36.03L133.12-36.03Q133.12-34.37 133.09-32.77L133.09-32.77L133.09-32.77Q133.06-31.17 133.06-29.76L133.06-29.76L133.06-29.76Q133.06-28.35 133.06-27.39L133.06-27.39L133.06-27.39Q133.89-29.57 135.07-32.77L135.07-32.77L135.07-32.77Q136.26-35.97 137.28-38.98L137.28-38.98L137.28-38.98Q138.50-42.50 139.78-46.40L139.78-46.40L149.70-44.16L149.70-44.16Q146.94-38.66 144.32-33.22L144.32-33.22L144.32-33.22Q143.23-30.85 142.02-28.32L142.02-28.32L142.02-28.32Q140.80-25.79 139.58-23.26L139.58-23.26L139.58-23.26Q138.37-20.74 137.22-18.37L137.22-18.37L137.22-18.37Q136.06-16 135.10-13.95L135.10-13.95L135.10-13.95Q134.78-12.29 134.30-10.30L134.30-10.30L134.30-10.30Q133.82-8.32 133.38-6.53L133.38-6.53L133.38-6.53Q132.80-4.42 132.16-2.30L132.16-2.30ZM176.70-34.62L176.70-34.62Q176.70-29.38 175.58-24.74L175.58-24.74L175.58-24.74Q174.46-20.10 172.61-16.22L172.61-16.22L172.61-16.22Q170.75-12.35 168.29-9.31L168.29-9.31L168.29-9.31Q165.82-6.27 163.14-4.13L163.14-4.13L163.14-4.13Q160.45-1.98 157.70-0.86L157.70-0.86L157.70-0.86Q154.94 0.26 152.45 0.26L152.45 0.26L152.45 0.26Q150.34 0.26 148.61-0.54L148.61-0.54L148.61-0.54Q146.88-1.34 145.60-2.91L145.60-2.91L145.60-2.91Q144.32-4.48 143.58-6.94L143.58-6.94L143.58-6.94Q142.85-9.41 142.85-12.86L142.85-12.86L142.85-12.86Q142.85-16.45 143.74-20.42L143.74-20.42L143.74-20.42Q144.64-24.38 146.18-28.29L146.18-28.29L146.18-28.29Q147.71-32.19 149.95-35.71L149.95-35.71L149.95-35.71Q152.19-39.23 154.88-41.95L154.88-41.95L154.88-41.95Q157.57-44.67 160.64-46.27L160.64-46.27L160.64-46.27Q163.71-47.87 167.04-47.87L167.04-47.87L167.04-47.87Q169.92-47.87 171.81-46.69L171.81-46.69L171.81-46.69Q173.70-45.50 174.75-43.62L174.75-43.62L174.75-43.62Q175.81-41.73 176.26-39.36L176.26-39.36L176.26-39.36Q176.70-36.99 176.70-34.62L176.70-34.62ZM152.38-14.53L152.38-14.53Q152.38-13.82 152.64-13.06L152.64-13.06L152.64-13.06Q152.90-12.29 153.34-11.71L153.34-11.71L153.34-11.71Q153.79-11.14 154.46-10.72L154.46-10.72L154.46-10.72Q155.14-10.30 155.90-10.30L155.90-10.30L155.90-10.30Q158.78-10.30 161.02-12.29L161.02-12.29L161.02-12.29Q163.26-14.27 164.74-17.15L164.74-17.15L164.74-17.15Q166.21-20.03 167.01-23.30L167.01-23.30L167.01-23.30Q167.81-26.56 167.81-29.25L167.81-29.25L167.81-29.25Q167.81-30.02 167.71-30.91L167.71-30.91L167.71-30.91Q167.62-31.81 167.33-32.58L167.33-32.58L167.33-32.58Q167.04-33.34 166.43-33.89L166.43-33.89L166.43-33.89Q165.82-34.43 164.80-34.43L164.80-34.43L164.80-34.43Q162.75-34.43 161.02-33.41L161.02-33.41L161.02-33.41Q159.30-32.38 157.92-30.69L157.92-30.69L157.92-30.69Q156.54-28.99 155.52-26.85L155.52-26.85L155.52-26.85Q154.50-24.70 153.76-22.50L153.76-22.50L153.76-22.50Q153.02-20.29 152.70-18.18L152.70-18.18L152.70-18.18Q152.38-16.06 152.38-14.53L152.38-14.53ZM199.04-12.48L199.04-12.48Q198.14-8.83 196.51-6.27L196.51-6.27L196.51-6.27Q194.88-3.71 192.67-2.05L192.67-2.05L192.67-2.05Q190.46-0.38 187.97 0.38L187.97 0.38L187.97 0.38Q185.47 1.15 182.98 1.15L182.98 1.15L182.98 1.15Q181.50 1.15 179.97 0.67L179.97 0.67L179.97 0.67Q178.43 0.19 177.22-0.77L177.22-0.77L177.22-0.77Q176-1.73 175.20-3.20L175.20-3.20L175.20-3.20Q174.40-4.67 174.40-6.66L174.40-6.66L174.40-6.66Q174.40-6.91 174.40-7.17L174.40-7.17L174.40-7.17Q174.40-7.42 174.46-7.68L174.46-7.68L174.46-7.68Q174.72-10.30 175.30-14.02L175.30-14.02L175.30-14.02Q175.87-17.73 176.51-21.76L176.51-21.76L176.51-21.76Q177.15-25.79 177.92-29.86L177.92-29.86L177.92-29.86Q178.69-33.92 179.30-37.25L179.30-37.25L179.30-37.25Q179.90-40.58 180.35-42.78L180.35-42.78L180.35-42.78Q180.80-44.99 180.93-45.50L180.93-45.50L180.93-45.50Q182.27-45.63 184.13-45.82L184.13-45.82L184.13-45.82Q185.98-46.02 187.58-46.14L187.58-46.14L187.58-46.14Q189.57-46.34 191.49-46.53L191.49-46.53L191.49-46.53Q189.82-38.78 188.54-32.51L188.54-32.51L188.54-32.51Q187.97-29.82 187.42-27.14L187.42-27.14L187.42-27.14Q186.88-24.45 186.40-22.21L186.40-22.21L186.40-22.21Q185.92-19.97 185.57-18.34L185.57-18.34L185.57-18.34Q185.22-16.70 184.99-15.68L184.99-15.68L184.99-15.68Q184.77-14.66 184.48-13.09L184.48-13.09L184.48-13.09Q184.19-11.52 184.19-10.24L184.19-10.24L184.19-10.24Q184.19-9.22 184.70-8.54L184.70-8.54L184.70-8.54Q185.22-7.87 185.98-7.87L185.98-7.87L185.98-7.87Q187.07-7.87 187.78-8.74L187.78-8.74L187.78-8.74Q188.48-9.60 188.96-10.82L188.96-10.82L188.96-10.82Q189.44-12.03 189.66-13.28L189.66-13.28L189.66-13.28Q189.89-14.53 190.08-15.23L190.08-15.23L190.08-15.23Q190.46-17.09 190.94-19.36L190.94-19.36L190.94-19.36Q191.42-21.63 191.90-24.10L191.90-24.10L191.90-24.10Q192.38-26.56 192.86-29.12L192.86-29.12L192.86-29.12Q193.34-31.68 193.79-34.11L193.79-34.11L193.79-34.11Q194.88-39.74 195.90-45.76L195.90-45.76L205.63-46.40L205.63-46.40Q205.63-46.40 205.31-44.74L205.31-44.74L205.31-44.74Q204.99-43.07 204.48-40.32L204.48-40.32L204.48-40.32Q203.97-37.57 203.36-34.05L203.36-34.05L203.36-34.05Q202.75-30.53 201.98-26.72L201.98-26.72L201.98-26.72Q201.22-22.91 200.48-19.23L200.48-19.23L200.48-19.23Q199.74-15.55 199.04-12.48L199.04-12.48Z" fill="#f00" stroke="#0f0" stroke-width="1.8"></path></g></g><g><g transform="translate(150.238130569458, 99.73500442504883)"><path d="M8.64-1.09L-1.92-0.38L-1.92-0.38Q0.90-8.90 3.46-17.09L3.46-17.09L3.46-17.09Q4.54-20.54 5.70-24.32L5.70-24.32L5.70-24.32Q6.85-28.10 8-31.81L8-31.81L8-31.81Q9.15-35.52 10.14-38.98L10.14-38.98L10.14-38.98Q11.14-42.43 11.90-45.38L11.90-45.38L11.90-45.38Q15.42-45.38 18.56-45.76L18.56-45.76L18.56-45.76Q21.70-46.14 25.34-46.46L25.34-46.46L25.34-46.46Q25.15-45.06 24.93-43.30L24.93-43.30L24.93-43.30Q24.70-41.54 24.42-39.62L24.42-39.62L24.42-39.62Q24.13-37.70 23.81-35.65L23.81-35.65L23.81-35.65Q23.49-33.60 23.04-30.40L23.04-30.40L23.04-30.40Q22.59-27.20 21.82-22.40L21.82-22.40L22.66-22.40L22.66-22.40Q24.51-27.26 25.73-30.50L25.73-30.50L25.73-30.50Q26.94-33.73 27.71-35.78L27.71-35.78L27.71-35.78Q28.48-37.82 29.28-39.78L29.28-39.78L29.28-39.78Q30.08-41.73 30.82-43.49L30.82-43.49L30.82-43.49Q31.55-45.25 32.19-46.59L32.19-46.59L32.19-46.59Q33.79-46.72 35.20-46.91L35.20-46.91L35.20-46.91Q36.61-47.10 38.02-47.33L38.02-47.33L38.02-47.33Q39.42-47.55 40.86-47.78L40.86-47.78L40.86-47.78Q42.30-48 44.03-48.32L44.03-48.32L44.03-48.32Q43.39-44.61 42.82-40.70L42.82-40.70L42.82-40.70Q42.24-36.80 41.79-32.93L41.79-32.93L41.79-32.93Q41.34-29.06 40.93-25.28L40.93-25.28L40.93-25.28Q40.51-21.50 40.19-18.11L40.19-18.11L40.19-18.11Q39.42-10.18 38.85-2.62L38.85-2.62L27.71-0.64L27.71-0.64Q27.71-0.96 27.81-2.37L27.81-2.37L27.81-2.37Q27.90-3.78 28.06-5.82L28.06-5.82L28.06-5.82Q28.22-7.87 28.51-10.37L28.51-10.37L28.51-10.37Q28.80-12.86 29.09-15.36L29.09-15.36L29.09-15.36Q29.38-17.86 29.70-20.19L29.70-20.19L29.70-20.19Q30.02-22.53 30.34-24.19L30.34-24.19L29.76-24.19L29.76-24.19Q28.86-21.50 27.78-18.53L27.78-18.53L27.78-18.53Q26.69-15.55 25.57-12.48L25.57-12.48L25.57-12.48Q24.45-9.41 23.36-6.46L23.36-6.46L23.36-6.46Q22.27-3.52 21.44-0.83L21.44-0.83L21.44-0.83Q19.20-0.77 17.60-0.67L17.60-0.67L17.60-0.67Q16-0.58 13.89-0.45L13.89-0.45L15.94-24.19L14.98-24.19L14.98-24.19Q14.85-23.36 14.34-21.41L14.34-21.41L14.34-21.41Q13.82-19.46 13.15-16.93L13.15-16.93L13.15-16.93Q12.48-14.40 11.71-11.68L11.71-11.68L11.71-11.68Q10.94-8.96 10.27-6.62L10.27-6.62L10.27-6.62Q9.60-4.29 9.15-2.78L9.15-2.78L9.15-2.78Q8.70-1.28 8.64-1.09L8.64-1.09ZM60.80-3.14L40.13 0.06L48.51-45.44L68.74-47.17L68.74-47.17Q68.29-45.76 67.97-44.29L67.97-44.29L67.97-44.29Q67.65-43.07 67.36-41.76L67.36-41.76L67.36-41.76Q67.07-40.45 66.88-39.42L66.88-39.42L66.88-39.42Q66.24-39.36 65.06-39.33L65.06-39.33L65.06-39.33Q63.87-39.30 62.53-39.26L62.53-39.26L62.53-39.26Q61.18-39.23 59.81-39.23L59.81-39.23L59.81-39.23Q58.43-39.23 57.41-39.23L57.41-39.23L55.17-27.78L55.17-27.78Q57.15-27.90 58.88-27.97L58.88-27.97L58.88-27.97Q60.29-28.03 61.76-28.03L61.76-28.03L61.76-28.03Q63.23-28.03 63.94-28.10L63.94-28.10L63.94-28.10Q63.68-26.30 63.46-24.58L63.46-24.58L63.46-24.58Q63.23-22.85 62.91-21.06L62.91-21.06L62.91-21.06Q62.27-20.99 60.83-20.96L60.83-20.96L60.83-20.96Q59.39-20.93 57.92-20.86L57.92-20.86L57.92-20.86Q56.26-20.80 54.27-20.74L54.27-20.74L52.10-8.96L61.44-10.43L60.80-3.14ZM84.80-1.34L84.80-1.34Q79.62-0.96 73.98-0.58L73.98-0.58L75.07-8.64L75.07-8.64Q75.26-10.62 77.02-12.77L77.02-12.77L77.02-12.77Q78.78-14.91 81.22-17.12L81.22-17.12L81.22-17.12Q83.65-19.33 86.43-21.41L86.43-21.41L86.43-21.41Q89.22-23.49 91.58-25.41L91.58-25.41L91.58-25.41Q93.95-27.33 95.52-28.96L95.52-28.96L95.52-28.96Q97.09-30.59 97.09-31.81L97.09-31.81L97.09-31.81Q97.09-33.73 96.35-34.78L96.35-34.78L96.35-34.78Q95.62-35.84 94.53-35.84L94.53-35.84L94.53-35.84Q93.44-35.84 92.64-35.36L92.64-35.36L92.64-35.36Q91.84-34.88 91.42-34.11L91.42-34.11L91.42-34.11Q91.01-33.34 90.82-32.45L90.82-32.45L90.82-32.45Q90.62-31.55 90.62-30.66L90.62-30.66L90.62-30.02L90.62-30.02Q90.62-29.82 90.69-29.76L90.69-29.76L90.69-29.76Q88.96-29.63 87.10-29.44L87.10-29.44L87.10-29.44Q85.50-29.31 83.55-29.09L83.55-29.09L83.55-29.09Q81.60-28.86 79.68-28.67L79.68-28.67L79.68-28.67Q79.62-29.18 79.58-29.73L79.58-29.73L79.58-29.73Q79.55-30.27 79.55-30.72L79.55-30.72L79.55-30.72Q79.55-34.50 81.02-37.47L81.02-37.47L81.02-37.47Q82.50-40.45 84.83-42.46L84.83-42.46L84.83-42.46Q87.17-44.48 90.14-45.57L90.14-45.57L90.14-45.57Q93.12-46.66 96.06-46.66L96.06-46.66L96.06-46.66Q98.50-46.66 100.70-45.89L100.70-45.89L100.70-45.89Q102.91-45.12 104.61-43.55L104.61-43.55L104.61-43.55Q106.30-41.98 107.33-39.58L107.33-39.58L107.33-39.58Q108.35-37.18 108.35-33.86L108.35-33.86L108.35-33.86Q108.35-30.66 106.69-27.62L106.69-27.62L106.69-27.62Q105.02-24.58 102.08-21.66L102.08-21.66L102.08-21.66Q99.14-18.75 95.10-16L95.10-16L95.10-16Q91.07-13.25 86.34-10.75L86.34-10.75L86.34-10.75Q88.06-10.75 90.78-10.88L90.78-10.88L90.78-10.88Q93.50-11.01 96.35-11.23L96.35-11.23L96.35-11.23Q99.20-11.46 102.53-11.71L102.53-11.71L101.50-2.43L101.50-2.43Q99.97-2.30 98.02-2.18L98.02-2.18L98.02-2.18Q96.06-2.05 93.86-1.92L93.86-1.92L93.86-1.92Q91.65-1.79 89.31-1.63L89.31-1.63L89.31-1.63Q86.98-1.47 84.80-1.34L84.80-1.34ZM132.16-2.30L121.22-0.96L124.16-13.82L124.16-13.82Q124.16-16.58 124.06-19.81L124.06-19.81L124.06-19.81Q123.97-23.04 123.78-26.30L123.78-26.30L123.78-26.30Q123.58-29.57 123.39-32.61L123.39-32.61L123.39-32.61Q123.20-35.65 123.07-37.98L123.07-37.98L123.07-37.98Q122.94-40.32 122.82-41.73L122.82-41.73L122.82-41.73Q122.69-43.14 122.69-43.14L122.69-43.14L133.12-47.10L133.12-39.30L133.12-39.30Q133.12-37.70 133.12-36.03L133.12-36.03L133.12-36.03Q133.12-34.37 133.09-32.77L133.09-32.77L133.09-32.77Q133.06-31.17 133.06-29.76L133.06-29.76L133.06-29.76Q133.06-28.35 133.06-27.39L133.06-27.39L133.06-27.39Q133.89-29.57 135.07-32.77L135.07-32.77L135.07-32.77Q136.26-35.97 137.28-38.98L137.28-38.98L137.28-38.98Q138.50-42.50 139.78-46.40L139.78-46.40L149.70-44.16L149.70-44.16Q146.94-38.66 144.32-33.22L144.32-33.22L144.32-33.22Q143.23-30.85 142.02-28.32L142.02-28.32L142.02-28.32Q140.80-25.79 139.58-23.26L139.58-23.26L139.58-23.26Q138.37-20.74 137.22-18.37L137.22-18.37L137.22-18.37Q136.06-16 135.10-13.95L135.10-13.95L135.10-13.95Q134.78-12.29 134.30-10.30L134.30-10.30L134.30-10.30Q133.82-8.32 133.38-6.53L133.38-6.53L133.38-6.53Q132.80-4.42 132.16-2.30L132.16-2.30ZM176.70-34.62L176.70-34.62Q176.70-29.38 175.58-24.74L175.58-24.74L175.58-24.74Q174.46-20.10 172.61-16.22L172.61-16.22L172.61-16.22Q170.75-12.35 168.29-9.31L168.29-9.31L168.29-9.31Q165.82-6.27 163.14-4.13L163.14-4.13L163.14-4.13Q160.45-1.98 157.70-0.86L157.70-0.86L157.70-0.86Q154.94 0.26 152.45 0.26L152.45 0.26L152.45 0.26Q150.34 0.26 148.61-0.54L148.61-0.54L148.61-0.54Q146.88-1.34 145.60-2.91L145.60-2.91L145.60-2.91Q144.32-4.48 143.58-6.94L143.58-6.94L143.58-6.94Q142.85-9.41 142.85-12.86L142.85-12.86L142.85-12.86Q142.85-16.45 143.74-20.42L143.74-20.42L143.74-20.42Q144.64-24.38 146.18-28.29L146.18-28.29L146.18-28.29Q147.71-32.19 149.95-35.71L149.95-35.71L149.95-35.71Q152.19-39.23 154.88-41.95L154.88-41.95L154.88-41.95Q157.57-44.67 160.64-46.27L160.64-46.27L160.64-46.27Q163.71-47.87 167.04-47.87L167.04-47.87L167.04-47.87Q169.92-47.87 171.81-46.69L171.81-46.69L171.81-46.69Q173.70-45.50 174.75-43.62L174.75-43.62L174.75-43.62Q175.81-41.73 176.26-39.36L176.26-39.36L176.26-39.36Q176.70-36.99 176.70-34.62L176.70-34.62ZM152.38-14.53L152.38-14.53Q152.38-13.82 152.64-13.06L152.64-13.06L152.64-13.06Q152.90-12.29 153.34-11.71L153.34-11.71L153.34-11.71Q153.79-11.14 154.46-10.72L154.46-10.72L154.46-10.72Q155.14-10.30 155.90-10.30L155.90-10.30L155.90-10.30Q158.78-10.30 161.02-12.29L161.02-12.29L161.02-12.29Q163.26-14.27 164.74-17.15L164.74-17.15L164.74-17.15Q166.21-20.03 167.01-23.30L167.01-23.30L167.01-23.30Q167.81-26.56 167.81-29.25L167.81-29.25L167.81-29.25Q167.81-30.02 167.71-30.91L167.71-30.91L167.71-30.91Q167.62-31.81 167.33-32.58L167.33-32.58L167.33-32.58Q167.04-33.34 166.43-33.89L166.43-33.89L166.43-33.89Q165.82-34.43 164.80-34.43L164.80-34.43L164.80-34.43Q162.75-34.43 161.02-33.41L161.02-33.41L161.02-33.41Q159.30-32.38 157.92-30.69L157.92-30.69L157.92-30.69Q156.54-28.99 155.52-26.85L155.52-26.85L155.52-26.85Q154.50-24.70 153.76-22.50L153.76-22.50L153.76-22.50Q153.02-20.29 152.70-18.18L152.70-18.18L152.70-18.18Q152.38-16.06 152.38-14.53L152.38-14.53ZM199.04-12.48L199.04-12.48Q198.14-8.83 196.51-6.27L196.51-6.27L196.51-6.27Q194.88-3.71 192.67-2.05L192.67-2.05L192.67-2.05Q190.46-0.38 187.97 0.38L187.97 0.38L187.97 0.38Q185.47 1.15 182.98 1.15L182.98 1.15L182.98 1.15Q181.50 1.15 179.97 0.67L179.97 0.67L179.97 0.67Q178.43 0.19 177.22-0.77L177.22-0.77L177.22-0.77Q176-1.73 175.20-3.20L175.20-3.20L175.20-3.20Q174.40-4.67 174.40-6.66L174.40-6.66L174.40-6.66Q174.40-6.91 174.40-7.17L174.40-7.17L174.40-7.17Q174.40-7.42 174.46-7.68L174.46-7.68L174.46-7.68Q174.72-10.30 175.30-14.02L175.30-14.02L175.30-14.02Q175.87-17.73 176.51-21.76L176.51-21.76L176.51-21.76Q177.15-25.79 177.92-29.86L177.92-29.86L177.92-29.86Q178.69-33.92 179.30-37.25L179.30-37.25L179.30-37.25Q179.90-40.58 180.35-42.78L180.35-42.78L180.35-42.78Q180.80-44.99 180.93-45.50L180.93-45.50L180.93-45.50Q182.27-45.63 184.13-45.82L184.13-45.82L184.13-45.82Q185.98-46.02 187.58-46.14L187.58-46.14L187.58-46.14Q189.57-46.34 191.49-46.53L191.49-46.53L191.49-46.53Q189.82-38.78 188.54-32.51L188.54-32.51L188.54-32.51Q187.97-29.82 187.42-27.14L187.42-27.14L187.42-27.14Q186.88-24.45 186.40-22.21L186.40-22.21L186.40-22.21Q185.92-19.97 185.57-18.34L185.57-18.34L185.57-18.34Q185.22-16.70 184.99-15.68L184.99-15.68L184.99-15.68Q184.77-14.66 184.48-13.09L184.48-13.09L184.48-13.09Q184.19-11.52 184.19-10.24L184.19-10.24L184.19-10.24Q184.19-9.22 184.70-8.54L184.70-8.54L184.70-8.54Q185.22-7.87 185.98-7.87L185.98-7.87L185.98-7.87Q187.07-7.87 187.78-8.74L187.78-8.74L187.78-8.74Q188.48-9.60 188.96-10.82L188.96-10.82L188.96-10.82Q189.44-12.03 189.66-13.28L189.66-13.28L189.66-13.28Q189.89-14.53 190.08-15.23L190.08-15.23L190.08-15.23Q190.46-17.09 190.94-19.36L190.94-19.36L190.94-19.36Q191.42-21.63 191.90-24.10L191.90-24.10L191.90-24.10Q192.38-26.56 192.86-29.12L192.86-29.12L192.86-29.12Q193.34-31.68 193.79-34.11L193.79-34.11L193.79-34.11Q194.88-39.74 195.90-45.76L195.90-45.76L205.63-46.40L205.63-46.40Q205.63-46.40 205.31-44.74L205.31-44.74L205.31-44.74Q204.99-43.07 204.48-40.32L204.48-40.32L204.48-40.32Q203.97-37.57 203.36-34.05L203.36-34.05L203.36-34.05Q202.75-30.53 201.98-26.72L201.98-26.72L201.98-26.72Q201.22-22.91 200.48-19.23L200.48-19.23L200.48-19.23Q199.74-15.55 199.04-12.48L199.04-12.48Z" fill="none" stroke="#fff" stroke-width="2.1"></path></g></g></g><style>text {
  font-size: 64px;
  font-family: Arial Black;
  dominant-baseline: central;
  text-anchor: middle;
}</style></svg>